<svg width="245" height="40" viewBox="0 0 245 40" fill="none" xmlns="http://www.w3.org/2000/svg">
<path d="M81.2051 11.8096C82.4525 13.208 83.0762 15.467 83.0762 18.5865V29.4472C83.0991 29.8105 83.0422 30.1745 82.9094 30.5134C82.7767 30.8522 82.5714 31.1577 82.308 31.4082C81.7495 31.8802 81.0345 32.1244 80.3049 32.0925C79.5892 32.1198 78.8897 31.8754 78.3458 31.4082C78.0822 31.1578 77.8768 30.8524 77.744 30.5135C77.6112 30.1746 77.5544 29.8106 77.5775 29.4472V18.5865C77.5775 16.9681 77.2914 15.813 76.7192 15.121C76.3898 14.7598 75.9827 14.4786 75.5288 14.2987C75.0749 14.1189 74.586 14.0451 74.0994 14.083C73.453 14.0553 72.8086 14.1738 72.2141 14.4299C71.6196 14.686 71.0902 15.073 70.6652 15.5622C69.7608 16.7066 69.3065 18.1441 69.3885 19.602V29.4472C69.4115 29.8105 69.3546 30.1745 69.2218 30.5134C69.0891 30.8523 68.8837 31.1577 68.6203 31.4082C68.0772 31.8745 67.3791 32.1187 66.6647 32.0925C65.9427 32.1168 65.2372 31.8732 64.6833 31.4082C64.4135 31.1615 64.2022 30.8573 64.065 30.5179C63.9278 30.1786 63.8683 29.8127 63.8906 29.4472V18.5865C63.8906 16.9681 63.6042 15.813 63.0315 15.121C62.7022 14.7599 62.2952 14.4788 61.8414 14.2989C61.3876 14.1191 60.8989 14.0452 60.4124 14.083C59.7691 14.054 59.1276 14.1721 58.5366 14.4284C57.9455 14.6847 57.4202 15.0724 57.0006 15.5622C56.1091 16.7126 55.6626 18.1474 55.7435 19.602V29.4472C55.7659 29.8126 55.7064 30.1785 55.5693 30.5178C55.4323 30.8572 55.2212 31.1614 54.9515 31.4082C54.3976 31.8732 53.692 32.1168 52.97 32.0925C52.2556 32.1188 51.5575 31.8745 51.0145 31.4082C50.7509 31.1578 50.5455 30.8523 50.4128 30.5134C50.28 30.1745 50.2231 29.8106 50.2462 29.4472V12.358C50.2247 12.0018 50.2849 11.6454 50.4224 11.3162C50.5598 10.987 50.7708 10.6939 51.0389 10.4593C51.5985 10.0068 52.3019 9.77155 53.0203 9.79674C53.7018 9.7685 54.3692 9.99684 54.8914 10.4369C55.1397 10.6697 55.3336 10.9546 55.4592 11.2714C55.5848 11.5882 55.6389 11.9289 55.6178 12.2691V13.3287C56.25 12.194 57.1882 11.2607 58.3248 10.6358C59.5243 10.0006 60.8651 9.68149 62.2214 9.70849C65.4499 9.70849 67.6071 11.0625 68.6929 13.7707C69.3438 12.5289 70.338 11.5017 71.5564 10.8123C72.8553 10.0669 74.3302 9.68563 75.8266 9.70849C78.1742 9.70849 79.9719 10.4075 81.2198 11.8054" fill="white"/>
<path d="M92.6954 30.8129C91.0511 29.9152 89.7103 28.5473 88.8436 26.8831C87.9017 25.041 87.4327 22.9925 87.4789 20.9229C87.4311 18.8603 87.9003 16.8187 88.8436 14.9851C89.7157 13.3306 91.0557 11.9713 92.6954 11.0777C94.4934 10.1777 96.4754 9.70923 98.485 9.70923C100.495 9.70923 102.477 10.1777 104.275 11.0777C105.911 11.9685 107.245 13.3291 108.105 14.9851C109.034 16.8231 109.495 18.8629 109.448 20.9229C109.494 22.9899 109.032 25.0366 108.105 26.8831C107.25 28.5487 105.915 29.9179 104.275 30.8129C102.477 31.7128 100.494 32.1813 98.485 32.1813C96.4754 32.1813 94.4934 31.7128 92.6954 30.8129M102.535 26.133C103.475 24.9564 103.944 23.2197 103.944 20.9229C103.944 18.6569 103.475 16.9277 102.535 15.7352C102.05 15.1368 101.429 14.6627 100.725 14.3518C100.021 14.0409 99.2528 13.9023 98.4846 13.9472C97.7135 13.9037 96.943 14.0429 96.2355 14.3536C95.528 14.6642 94.9033 15.1375 94.4121 15.7352C93.4581 16.9273 92.9811 18.6565 92.9811 20.9229C92.9811 23.2187 93.4507 24.9554 94.3898 26.133C94.8791 26.7258 95.5009 27.1947 96.2047 27.5014C96.9086 27.8082 97.6746 27.9443 98.4406 27.8987C99.2135 27.9471 99.9868 27.8126 100.698 27.5058C101.409 27.1991 102.039 26.7288 102.535 26.133" fill="white"/>
<path d="M131.329 11.0812C132.797 12.0285 133.965 13.3762 134.696 14.9662C135.538 16.8063 135.952 18.8141 135.907 20.8381C135.947 22.8829 135.534 24.911 134.696 26.7759C133.968 28.4031 132.792 29.788 131.306 30.7681C129.83 31.7171 128.107 32.2085 126.353 32.1807C124.902 32.2066 123.469 31.8568 122.192 31.1652C121.005 30.5187 120.033 29.5361 119.399 28.3398V29.4436C119.415 29.7953 119.357 30.1464 119.228 30.4738C119.099 30.8011 118.902 31.0972 118.65 31.3424C118.108 31.8297 117.396 32.0835 116.669 32.049C116.312 32.0675 115.955 32.0145 115.618 31.8932C115.282 31.7719 114.973 31.5846 114.71 31.3424C114.464 31.0938 114.272 30.7966 114.147 30.4697C114.022 30.1428 113.966 29.7933 113.983 29.4436V3.03947C113.97 2.69311 114.032 2.34795 114.164 2.02787C114.297 1.70779 114.497 1.42042 114.752 1.18557C115.304 0.70066 116.021 0.44782 116.755 0.479598C117.474 0.444598 118.181 0.680663 118.735 1.14144C118.986 1.36892 119.183 1.64929 119.312 1.96236C119.442 2.27543 119.5 2.61341 119.484 2.95192V13.3714C120.116 12.2077 121.082 11.2616 122.257 10.6561C123.524 10.0084 124.93 9.68254 126.352 9.70704C128.107 9.67305 129.834 10.1483 131.326 11.0756M128.952 26.0426C129.92 24.8062 130.405 23.0698 130.405 20.8332C130.405 18.6256 129.927 16.9333 128.973 15.7562C128.451 15.197 127.82 14.7517 127.118 14.4479C126.417 14.1441 125.661 13.9884 124.897 13.9904C124.133 13.9924 123.377 14.1522 122.677 14.4597C121.978 14.7673 121.348 15.216 120.829 15.7779C119.875 16.9699 119.398 18.6845 119.398 20.9215C119.399 23.1585 119.876 24.8802 120.829 26.0867C121.341 26.66 121.969 27.1178 122.671 27.4298C123.373 27.7419 124.133 27.901 124.9 27.8969C125.668 27.8927 126.426 27.7253 127.124 27.4056C127.823 27.086 128.446 26.6214 128.952 26.0426" fill="white"/>
<path d="M140.795 5.05516C140.503 4.78286 140.273 4.4506 140.121 4.08109C139.969 3.71157 139.899 3.31351 139.914 2.9141C139.897 2.51772 139.967 2.12246 140.119 1.75624C140.272 1.39003 140.502 1.0618 140.795 0.794763C141.477 0.278995 142.307 0 143.161 0C144.015 0 144.846 0.278995 145.527 0.794763C145.825 1.0585 146.061 1.38559 146.217 1.75222C146.373 2.11885 146.446 2.51578 146.43 2.9141C146.445 3.31349 146.374 3.7115 146.222 4.08098C146.07 4.45047 145.841 4.78275 145.549 5.05516C144.869 5.58457 144.033 5.87193 143.172 5.87193C142.311 5.87193 141.474 5.58457 140.794 5.05516M141.213 31.4124C140.949 31.1616 140.743 30.8555 140.611 30.516C140.478 30.1765 140.421 29.8118 140.445 29.4479V12.4056C140.42 12.0448 140.476 11.6829 140.609 11.3466C140.742 11.0104 140.948 10.7083 141.213 10.4628C141.763 10.0086 142.46 9.77308 143.172 9.8009C143.891 9.77558 144.594 10.0105 145.154 10.4628C145.425 10.7045 145.637 11.0052 145.775 11.342C145.912 11.6787 145.971 12.0426 145.946 12.4056V29.4471C145.969 29.8132 145.91 30.1798 145.773 30.5198C145.635 30.8598 145.424 31.1646 145.154 31.4117C144.6 31.8767 143.894 32.1203 143.172 32.096C142.457 32.1232 141.757 31.8788 141.213 31.4117" fill="white"/>
<path d="M152.395 31.4118C152.131 31.1609 151.925 30.8549 151.792 30.5154C151.66 30.1758 151.603 29.8111 151.627 29.4472V3.08995C151.602 2.7291 151.658 2.3672 151.791 2.03094C151.924 1.69469 152.13 1.39267 152.395 1.14712C152.944 0.693695 153.64 0.45817 154.351 0.485256C155.069 0.459995 155.772 0.694948 156.332 1.14712C156.603 1.38892 156.815 1.68971 156.953 2.02645C157.09 2.3632 157.148 2.72698 157.124 3.08995V29.4472C157.147 29.8132 157.088 30.1797 156.951 30.5197C156.814 30.8597 156.602 31.1646 156.332 31.4118C155.778 31.8767 155.073 32.1204 154.351 32.096C153.636 32.1225 152.938 31.8782 152.395 31.4118" fill="white"/>
<path d="M163.16 5.05516C162.868 4.78286 162.638 4.4506 162.486 4.08109C162.334 3.71157 162.263 3.31351 162.279 2.9141C162.262 2.51772 162.332 2.12246 162.484 1.75624C162.636 1.39003 162.867 1.0618 163.16 0.794763C163.841 0.278995 164.672 0 165.526 0C166.38 0 167.21 0.278995 167.892 0.794763C168.19 1.0585 168.426 1.38559 168.582 1.75222C168.738 2.11885 168.811 2.51578 168.794 2.9141C168.81 3.31343 168.739 3.7114 168.587 4.08087C168.435 4.45035 168.206 4.78266 167.914 5.05516C167.234 5.58457 166.398 5.87193 165.537 5.87193C164.676 5.87193 163.84 5.58457 163.16 5.05516ZM163.579 31.4124C163.315 31.1616 163.109 30.8555 162.976 30.516C162.843 30.1765 162.787 29.8118 162.81 29.4479V12.4056C162.785 12.0448 162.841 11.6829 162.974 11.3466C163.107 11.0104 163.314 10.7083 163.579 10.4628C164.128 10.0095 164.823 9.77395 165.534 9.8009C166.252 9.77564 166.956 10.0106 167.516 10.4628C167.787 10.7046 167.999 11.0054 168.136 11.3421C168.273 11.6789 168.332 12.0426 168.308 12.4056V29.4471C168.331 29.8132 168.271 30.1797 168.134 30.5197C167.997 30.8597 167.786 31.1645 167.516 31.4117C166.962 31.8767 166.256 32.1203 165.534 32.096C164.82 32.1222 164.122 31.8779 163.579 31.4117" fill="white"/>
<path d="M188.299 29.9773C188.312 30.2982 188.24 30.617 188.089 30.9004C187.938 31.1837 187.714 31.4212 187.44 31.5881C186.693 31.9928 185.839 32.1548 184.996 32.0518L183.809 31.9635C178.878 31.6105 176.412 28.9615 176.412 24.0164V14.3925H174.211C173.559 14.4357 172.912 14.2484 172.384 13.863C172.181 13.6602 172.021 13.4193 171.911 13.1542C171.802 12.8891 171.745 12.6049 171.745 12.318C171.745 12.031 171.802 11.7469 171.911 11.4818C172.021 11.2167 172.181 10.9758 172.384 10.773C172.912 10.3876 173.559 10.2002 174.211 10.2435H176.412V6.18129C176.396 5.82965 176.454 5.47849 176.583 5.15112C176.712 4.82374 176.909 4.52766 177.161 4.28257C177.718 3.79021 178.445 3.53648 179.186 3.57589C179.914 3.54192 180.625 3.79569 181.168 4.28257C181.42 4.52777 181.617 4.82386 181.746 5.1512C181.875 5.47855 181.933 5.82967 181.916 6.18129V10.2435H185.659C186.311 10.2002 186.957 10.3876 187.486 10.773C187.894 11.1827 188.124 11.7385 188.124 12.318C188.124 12.8975 187.894 13.4532 187.486 13.863C186.957 14.2484 186.311 14.4357 185.659 14.3925H181.916V24.4142C181.916 26.5928 182.914 27.7554 184.91 27.902L186.097 27.9903C187.565 28.0785 188.299 28.7409 188.299 29.9773" fill="white"/>
<path d="M207.471 10.2204C207.859 9.9728 208.31 9.84249 208.769 9.845C209.441 9.84394 210.09 10.087 210.596 10.5293C210.853 10.7311 211.06 10.9893 211.201 11.284C211.342 11.5788 211.414 11.9021 211.411 12.2291C211.403 12.5836 211.313 12.9314 211.147 13.2446L199.128 38.4981C198.935 38.9545 198.609 39.3419 198.193 39.6097C197.776 39.8774 197.289 40.0131 196.795 39.999C196.143 40.0073 195.51 39.78 195.012 39.3588C194.769 39.168 194.573 38.9232 194.439 38.6438C194.306 38.3643 194.239 38.0577 194.244 37.748C194.257 37.366 194.347 36.9906 194.508 36.6442L197.502 30.331L189.313 13.2418C189.161 12.9254 189.085 12.5775 189.092 12.2263C189.092 11.8921 189.17 11.5626 189.319 11.2637C189.468 10.9648 189.684 10.7047 189.95 10.504C190.498 10.0418 191.193 9.79114 191.909 9.79736C192.39 9.79272 192.863 9.92274 193.274 10.1728C193.71 10.4528 194.048 10.8615 194.242 11.3424L200.406 24.9843L206.526 11.3865C206.717 10.9101 207.047 10.5024 207.472 10.2169" fill="white"/>
<path d="M5.36072 31.1498C3.66458 30.2077 2.28412 28.7837 1.39299 27.0568C0.475745 25.1121 0 22.9877 0 20.8364C0 18.6852 0.475745 16.5607 1.39299 14.616C2.28205 12.892 3.66345 11.4728 5.36072 10.5398C7.24798 9.59986 9.32661 9.11072 11.4338 9.11072C13.5411 9.11072 15.6197 9.59986 17.507 10.5398C19.2019 11.4706 20.5787 12.8908 21.4586 14.616C22.3681 16.5634 22.8381 18.6879 22.8353 20.8382C22.8326 22.9885 22.357 25.1118 21.4426 27.0568C20.5513 28.7835 19.1709 30.2075 17.4748 31.1498C15.5964 32.1001 13.5218 32.5952 11.4178 32.5952C9.31381 32.5952 7.23918 32.1001 5.36072 31.1498M15.4829 26.1771C16.4547 24.9538 16.9406 23.1728 16.9406 20.834C16.9406 18.4952 16.4484 16.7204 15.4641 15.5097C14.9565 14.939 14.3346 14.482 13.6389 14.1686C12.9433 13.8552 12.1896 13.6924 11.427 13.6909C10.6643 13.6894 9.90997 13.8492 9.2131 14.1598C8.51622 14.4704 7.8925 14.9249 7.38264 15.4936C6.4109 16.6955 5.92505 18.4765 5.92505 20.8368C5.92505 23.197 6.4109 24.9835 7.38264 26.196C7.89132 26.7695 8.51558 27.2282 9.21414 27.5418C9.9127 27.8553 10.6697 28.0167 11.435 28.0152C12.2004 28.0137 12.9567 27.8493 13.654 27.5329C14.3513 27.2166 14.9737 26.7554 15.4802 26.1799" fill="white"/>
<path d="M46.4803 29.7042C46.4806 30.057 46.4089 30.4062 46.2696 30.7303C46.1303 31.0543 45.9263 31.3462 45.6702 31.5882C45.4238 31.8473 45.1272 32.053 44.7986 32.1927C44.4699 32.3325 44.1162 32.4032 43.7593 32.4006C43.3403 32.3901 42.9281 32.2923 42.5488 32.1134C42.1696 31.9344 41.8316 31.6783 41.5564 31.3613L32.3254 21.8768V29.5424C32.3458 29.9389 32.2845 30.3353 32.1452 30.707C32.0059 31.0786 31.7917 31.4175 31.516 31.7024C31.2203 31.9757 30.8731 32.187 30.4948 32.3236C30.1165 32.4603 29.7147 32.5196 29.3131 32.498C28.918 32.5297 28.5208 32.4749 28.1488 32.3376C27.7769 32.2003 27.4391 31.9836 27.1588 31.7026C26.8784 31.4216 26.6623 31.0829 26.5253 30.7099C26.3883 30.337 26.3336 29.9386 26.3651 29.5424V12.164C26.3464 11.7739 26.4071 11.3841 26.5435 11.0182C26.6799 10.6524 26.8891 10.3183 27.1585 10.0362C27.445 9.76417 27.7837 9.55337 28.154 9.4166C28.5243 9.27983 28.9184 9.21995 29.3124 9.24061C29.714 9.21915 30.1157 9.27849 30.494 9.41513C30.8723 9.55177 31.2196 9.76295 31.5153 10.0362C31.789 10.3159 32.0022 10.6493 32.1414 11.0154C32.2807 11.3815 32.3431 11.7725 32.3247 12.164V19.3078L41.428 10.121C41.6631 9.85236 41.9514 9.63573 42.2746 9.48483C42.5977 9.33393 42.9486 9.25206 43.3049 9.24442C43.6613 9.23678 44.0154 9.30354 44.3446 9.44046C44.6739 9.57737 44.9712 9.78145 45.2176 10.0397C45.474 10.278 45.6784 10.567 45.8177 10.8886C45.957 11.2101 46.0283 11.5571 46.027 11.9076C46.0161 12.2852 45.927 12.6563 45.7653 12.9974C45.6035 13.3386 45.3728 13.6422 45.0877 13.889L38.4478 20.4179L45.6415 27.8237C45.9056 28.0611 46.1171 28.3514 46.2622 28.676C46.4073 29.0005 46.4828 29.352 46.4838 29.7077" fill="white"/>
<path d="M220.998 10.1696C221.395 9.91675 221.855 9.78352 222.325 9.7858C223.013 9.78464 223.677 10.0335 224.195 10.4862C224.458 10.6927 224.669 10.957 224.814 11.2587C224.958 11.5603 225.032 11.8913 225.028 12.2259C225.021 12.5887 224.928 12.9447 224.759 13.2653L216.252 31.0548C216.054 31.5221 215.721 31.9187 215.295 32.1927C214.869 32.4668 214.37 32.6055 213.864 32.5908C213.197 32.5994 212.549 32.3669 212.039 31.9359C211.789 31.7408 211.588 31.4903 211.451 31.2041C211.315 30.9179 211.246 30.6038 211.25 30.2865C211.264 29.8956 211.356 29.5114 211.521 29.1568L220.028 11.3672C220.224 10.8792 220.562 10.4618 220.998 10.1696V10.1696Z" fill="#3855E5"/>
<path d="M240.414 10.1696C240.811 9.91671 241.271 9.78348 241.741 9.7858C242.429 9.78471 243.093 10.0335 243.611 10.4862C243.874 10.6927 244.085 10.957 244.23 11.2587C244.374 11.5604 244.448 11.8913 244.444 12.2259C244.436 12.5888 244.344 12.9447 244.174 13.2653L235.667 31.0548C235.47 31.5221 235.136 31.9187 234.71 32.1927C234.284 32.4668 233.785 32.6055 233.279 32.5908C232.612 32.5993 231.964 32.3669 231.454 31.9359C231.205 31.7408 231.004 31.4903 230.867 31.2041C230.73 30.9179 230.661 30.6038 230.666 30.2865C230.679 29.8956 230.771 29.5114 230.936 29.1568L239.443 11.3672C239.639 10.879 239.978 10.4616 240.414 10.1696Z" fill="#05F3DB"/>
<path d="M230.806 10.1682C231.203 9.91533 231.664 9.78253 232.133 9.78583C232.818 9.78554 233.48 10.0344 233.996 10.4862C234.258 10.6918 234.469 10.9551 234.613 11.2557C234.757 11.5563 234.83 11.8862 234.826 12.2196C234.819 12.5813 234.726 12.9361 234.557 13.2555L233.642 15.0351C233.445 15.5006 233.112 15.8956 232.688 16.1686C232.263 16.4416 231.767 16.5799 231.262 16.5655C230.599 16.5734 229.954 16.3417 229.447 15.9127C229.198 15.7184 228.998 15.4688 228.861 15.1838C228.725 14.8987 228.656 14.5858 228.661 14.2696C228.674 13.8801 228.766 13.4974 228.93 13.1441L229.845 11.3645C230.039 10.878 230.373 10.4612 230.806 10.1682V10.1682Z" fill="#05DBF3"/>
<path d="M226.801 18.1952C227.197 17.9423 227.658 17.8095 228.128 17.8128C228.813 17.8122 229.475 18.0611 229.991 18.5132C230.253 18.7187 230.464 18.9819 230.608 19.2824C230.752 19.5829 230.825 19.9125 230.822 20.2459C230.814 20.6073 230.721 20.9619 230.552 21.2811L229.636 23.0614C229.439 23.5268 229.107 23.9217 228.682 24.1947C228.258 24.4677 227.762 24.6061 227.258 24.5918C226.594 24.5996 225.949 24.3679 225.442 23.939C225.193 23.7446 224.993 23.4951 224.856 23.21C224.72 22.9249 224.651 22.612 224.656 22.2959C224.669 21.9064 224.761 21.5237 224.925 21.1704L225.84 19.3901C226.034 18.9041 226.368 18.4878 226.801 18.1952V18.1952Z" fill="#05DBF3"/>
<path d="M222.8 26.2223C223.196 25.9696 223.657 25.8368 224.127 25.8399C224.812 25.8397 225.473 26.0885 225.989 26.5403C226.251 26.746 226.462 27.0094 226.606 27.3099C226.75 27.6105 226.823 27.9403 226.82 28.2737C226.812 28.6351 226.72 28.9895 226.551 29.3089L225.635 31.0885C225.438 31.5538 225.106 31.9487 224.681 32.2217C224.257 32.4947 223.76 32.6331 223.256 32.6188C222.593 32.6267 221.948 32.3951 221.44 31.9661C221.192 31.7717 220.992 31.5221 220.855 31.2371C220.719 30.952 220.65 30.6391 220.655 30.323C220.668 29.9335 220.76 29.5507 220.924 29.1975L221.839 27.4179C222.033 26.9318 222.367 26.5152 222.8 26.2223V26.2223Z" fill="#05DBF3"/>
</svg>
